<svg xmlns="http://www.w3.org/2000/svg" width="51" height="41">
    <path fill="#FFF" fill-rule="evenodd" d="M35.28 30.127c-.995 0-1.965-.104-2.906-.296l-.353.916a.994.994 0 0 1-.924.641H14.245l.874 3.523h13.786c.139 0 .269.03.389.081 1.415.184 2.518 1.445 2.518 2.986 0 1.671-1.285 3.031-2.869 3.031-1.584 0-2.871-1.36-2.871-3.031 0-.37.072-.721.188-1.049H16.6c.116.328.189.679.189 1.049 0 1.671-1.288 3.031-2.872 3.031-1.582 0-2.87-1.36-2.87-3.031 0-1.373.878-2.521 2.069-2.889L6.071 6.699H.989A1 1 0 0 1-.004 5.69c0-.557.445-1.009.993-1.009h5.855c.456 0 .852.315.962.763l2.308 9.302h10.422C20.703 6.585 27.246-.006 35.28-.006c8.138 0 14.757 6.759 14.757 15.066 0 8.308-6.619 15.067-14.757 15.067zm-6.337 8.864c.488 0 .883-.455.883-1.013 0-.554-.395-1.005-.883-1.005s-.885.451-.885 1.005c0 .558.397 1.013.885 1.013zm-15.911-1.013c0 .558.398 1.013.885 1.013.488 0 .885-.455.885-1.013 0-.554-.397-1.005-.885-1.005-.487 0-.885.451-.885 1.005zm-2.416-21.214l3.128 12.606h16.675l.034-.088c-5.265-1.868-9.184-6.688-9.831-12.518H10.616zM35.28 1.873c-7.016 0-12.729 5.748-12.895 12.873-.003.106-.016.208-.016.314 0 .579.05 1.145.12 1.704.641 5.032 4.061 9.176 8.638 10.77.626.219 1.273.387 1.939.505.72.128 1.457.209 2.214.209 7.118 0 12.909-5.916 12.909-13.188 0-7.271-5.791-13.187-12.909-13.187zm5.524 14.197h-4.495v4.569a.99.99 0 0 1-.761.961c-.077.019-.149.048-.232.048a1 1 0 0 1-.993-1.009V16.07h-4.497a1 1 0 0 1-.993-1.009c0-.111.03-.214.062-.315a.986.986 0 0 1 .931-.694h4.497v-4.57a1 1 0 0 1 .993-1.009 1 1 0 0 1 .993 1.009v4.57h4.495c.549 0 .994.452.994 1.009 0 .558-.445 1.009-.994 1.009z"/>
</svg>
