<svg xmlns="http://www.w3.org/2000/svg" width="38" height="36">
    <path fill="#FFF" fill-rule="evenodd" d="M37.878 11.337l-5.67 14.492a1 1 0 0 1-.93.635H14.325l.88 3.494h13.867c.139 0 .271.028.391.079 1.424.183 2.534 1.432 2.534 2.96 0 1.656-1.293 3.002-2.885 3.002-1.594 0-2.89-1.346-2.89-3.002 0-.367.072-.714.189-1.039h-9.715c.116.325.189.672.189 1.039 0 1.656-1.296 3.002-2.888 3.002-1.593 0-2.887-1.346-2.887-3.002 0-1.36.882-2.497 2.08-2.862L6.104 1.999H.992a.997.997 0 0 1-.996-1c0-.553.445-1 .996-1h5.89c.457 0 .857.31.968.756l2.321 9.216h26.777a1 1 0 0 1 .93 1.366zm-8.766 22.662c.489 0 .887-.449.887-1.002 0-.549-.398-.996-.887-.996-.492 0-.89.447-.89.996 0 .553.398 1.002.89 1.002zm-15.115 0c.491 0 .89-.449.89-1.002 0-.549-.399-.996-.89-.996-.493 0-.891.447-.891.996 0 .553.398 1.002.891 1.002zm-3.322-22.028l3.146 12.493h16.776l4.886-12.493H10.675z"/>
</svg>
